<?xml version="1.0" encoding="utf-8"?>
<!-- Generator: Adobe Illustrator 16.0.0, SVG Export Plug-In . SVG Version: 6.00 Build 0)  -->
<!DOCTYPE svg PUBLIC "-//W3C//DTD SVG 1.1//EN" "http://www.w3.org/Graphics/SVG/1.1/DTD/svg11.dtd">
<svg version="1.1" id="Layer_1" xmlns="http://www.w3.org/2000/svg" xmlns:xlink="http://www.w3.org/1999/xlink" x="0px" y="0px"
	 width="150px" height="150px" viewBox="0 0 150 150" enable-background="new 0 0 150 150" xml:space="preserve">
<path fill="#661B24" d="M35.3,86.8c0,0,8.4-2.4,8.4-22c0-19.6-6.3-26.8,4.9-48.5c3.3-6.3,8.3-8,12.7-10.4c22.3-12.2,40,10.4,40,10.4
	c11.2,21.7,4.9,28.9,4.9,48.5c0,19.6,8.4,22,8.4,22H35.3z"/>
<path fill="#FF8E92" d="M107.8,84.4c-11.7-1.6-14.9-4.6-14.9-4.6H57.1c0,0-3.2,2.9-14.9,4.6c-9,1.3-17,4-22.1,14.9
	c9.3,21,30.4,35.7,54.9,35.7c24.5,0,45.6-14.7,54.9-35.7C124.8,88.3,116.8,85.6,107.8,84.4z"/>
<path fill="#661B24" d="M49.7,82.9c0,0-7.6,3-7,15.4c0,0-3.1-6.4,0-14C45.7,76.7,54,73.5,49.7,82.9z"/>
<path fill="#FFFFFF" d="M58.8,68.9c0,0,1.9,10-4.6,13.3c-6.6,3.3,4.5,30.1,20.8,30.1c16.3,0,27.4-26.8,20.8-30.1
	c-6.6-3.3-4.6-13.3-4.6-13.3H58.8z"/>
<path fill="#FFFFFF" d="M74.3,80.8c17.7,0,21.9-24.4,21.9-24.4c1,1.6,4.8-0.4,4.8-6.9c0-6.4-3.1-5.7-3.1-5.7
	C96.7,45,97,46.5,97,46.5S80.1,44.4,67.7,32C55.2,19.5,50.7,43.8,50.7,43.8s-3.1-0.7-3.1,5.7c0,6.4,3.7,8.5,4.8,6.9
	C52.4,56.4,56.6,80.8,74.3,80.8z"/>
<path fill="#FF1D25" d="M99.5,43.8c0-1.5-1.3-2-1.3-2c-2-1-7.8-2.5-15.5-1c-7.8,1.5-7.7,1.3-7.7,1.3s0.1,0.2-7.7-1.3
	c-7.8-1.5-13.6,0-15.6,1c0,0-1.3,0.5-1.3,2h1.3c0,0-1.4,9.9,10.5,9.9S71.4,46,75,46c3.6,0,0.7,7.7,12.7,7.7c12,0,10.5-9.9,10.5-9.9
	H99.5z"/>
<path fill="#FF8E92" d="M81.2,43.6c0.6-0.1,1.2-0.2,1.9-0.4c2.1-0.4,4.1-0.6,6.1-0.6c2.9,0,5.1,0.4,6.5,0.8l0.1,0.7
	c0,0,0.4,2.8-1.4,4.9c-1.3,1.5-3.6,2.3-6.8,2.3c-6.2,0-7.2-2.1-8.2-4.1C79.5,47.2,77.9,44.2,81.2,43.6z"/>
<path fill="#661B24" d="M97.4,27.1c16.7,7.5,3.7,22.3,3.7,22.3c0-6.4-3.1-5.7-3.1-5.7C96.7,45,97,46.5,97,46.5S80.1,44.4,67.7,32
	C67.7,32,45.9,4.2,97.4,27.1z"/>
<path fill="#FF8E92" d="M68.8,43.6c-0.6-0.1-1.2-0.2-1.9-0.4c-2.1-0.4-4.1-0.6-6.1-0.6c-2.9,0-5.1,0.4-6.5,0.8l-0.1,0.7
	c0,0-0.4,2.8,1.4,4.9c1.3,1.5,3.6,2.3,6.8,2.3c6.2,0,7.2-2.1,8.2-4.1C70.5,47.2,72.1,44.2,68.8,43.6z"/>
</svg>
