<?xml version="1.0" encoding="utf-8"?>
<!-- Generator: Adobe Illustrator 16.0.0, SVG Export Plug-In . SVG Version: 6.00 Build 0)  -->
<!DOCTYPE svg PUBLIC "-//W3C//DTD SVG 1.1//EN" "http://www.w3.org/Graphics/SVG/1.1/DTD/svg11.dtd">
<svg version="1.1" id="Layer_1" xmlns="http://www.w3.org/2000/svg" xmlns:xlink="http://www.w3.org/1999/xlink" x="0px" y="0px"
	 width="150px" height="150px" viewBox="0 0 150 150" enable-background="new 0 0 150 150" xml:space="preserve">
<g id="Layer_3_6_">
	<g>
		<g>
			
				<rect x="-4.6" y="30.2" transform="matrix(-0.7071 0.7071 -0.7071 -0.7071 82.1914 34.0439)" fill="#647A8A" width="77.2" height="7.7"/>
		</g>
		<g>
			
				<rect x="77.3" y="112.1" transform="matrix(-0.7071 0.7071 -0.7071 -0.7071 279.9387 115.9587)" fill="#647A8A" width="77.2" height="7.7"/>
		</g>
		<g opacity="0.5">
			
				<rect x="7.2" y="36.2" transform="matrix(-0.7071 0.7071 -0.7071 -0.7071 92.0783 38.1422)" fill="#828586" width="61.8" height="3.9"/>
		</g>
		<g>
			
				<rect x="81" y="109.9" transform="matrix(-0.7071 0.7071 -0.7071 -0.7071 270.0503 111.863)" fill="#EDAE53" width="61.8" height="3.9"/>
		</g>
		<g>
			<polygon fill="#E1E6E8" points="61.3,61.3 31.3,75 17.7,61.3 39.5,39.5 			"/>
		</g>
		<g>
			<polygon fill="#D3D7D9" points="75,31.3 61.3,61.3 39.5,39.5 61.3,17.7 			"/>
		</g>
		<g>
			<path fill="#FBD462" d="M75,75L58.6,58.6L31.3,75C43.4,87.1,62.9,87.1,75,75z"/>
		</g>
		<g>
			<path fill="#FFBF5C" d="M75,75c12.1-12.1,12.1-31.6,0-43.7L58.6,58.6L75,75z"/>
		</g>
		<g>
			<path fill="#E1E6E8" d="M75,118.7l13.7,13.7l21.8-21.8L75,75C62.9,87.1,62.9,106.6,75,118.7z"/>
		</g>
		<g>
			<path fill="#D3D7D9" d="M75,75l35.5,35.5l21.8-21.8L118.7,75C106.6,62.9,87.1,62.9,75,75z"/>
		</g>
		<g>
			<path fill="#FBD462" d="M88.7,88.7c-12.1,12.1-12.1,31.6,0,43.7l21.8-21.8L88.7,88.7z"/>
		</g>
		<g>
			<path fill="#FFBF5C" d="M132.3,88.7c-12.1-12.1-31.6-12.1-43.7,0l21.8,21.8L132.3,88.7z"/>
		</g>
	</g>
</g>
</svg>
