<?xml version="1.0" encoding="utf-8"?>
<!-- Generator: Adobe Illustrator 16.0.0, SVG Export Plug-In . SVG Version: 6.00 Build 0)  -->
<!DOCTYPE svg PUBLIC "-//W3C//DTD SVG 1.1//EN" "http://www.w3.org/Graphics/SVG/1.1/DTD/svg11.dtd">
<svg version="1.1" id="Layer_1" xmlns="http://www.w3.org/2000/svg" xmlns:xlink="http://www.w3.org/1999/xlink" x="0px" y="0px"
	 width="150px" height="150px" viewBox="0 0 150 150" enable-background="new 0 0 150 150" xml:space="preserve">
<path fill="#EDAE53" d="M127.2,118.7c0,2-1.7,3.7-3.7,3.7h-96c-2,0-3.7-1.7-3.7-3.7V57.7h3.7l46.2,29.5h3.7L124,57.9l3.2-0.1V118.7z
	"/>
<polygon fill="#DE8843" points="73.6,11.6 23.8,57.7 75.5,91 127.2,57.7 77.3,11.6 "/>
<path fill="#D3D7D9" d="M30.6,76.1v5.6c0,3.1,2.5,5.6,5.6,5.6h78.5c3.1,0,5.6-2.5,5.6-5.6v-5.6H30.6z"/>
<path fill="#464748" d="M114.7,22.8H36.2c-3.1,0-5.6,2.5-5.6,5.6v47.6h89.7V28.4C120.3,25.4,117.8,22.8,114.7,22.8z"/>
<rect x="36.2" y="28.4" fill="#EBF0F2" width="78.5" height="42"/>
<rect x="39" y="31.3" fill="#87A0AF" width="16.8" height="36.4"/>
<rect x="58.6" y="31.3" fill="#80D6F7" width="53.3" height="7"/>
<rect x="58.6" y="41.1" fill="#80D6F7" width="53.3" height="7"/>
<rect x="58.6" y="50.9" fill="#80D6F7" width="53.3" height="16.8"/>
<circle fill="#333333" cx="75.5" cy="81.7" r="2.5"/>
<path fill="#FFBF5C" d="M127.2,111.3c0,2-1.7,3.7-3.7,3.7h-96c-2,0-3.7-1.7-3.7-3.7V57.7h3.7l46.2,29.5h3.7L124,57.9l3.2-0.1V111.3z
	"/>
</svg>
