<?xml version="1.0" encoding="utf-8"?>
<!-- Generator: Adobe Illustrator 16.0.0, SVG Export Plug-In . SVG Version: 6.00 Build 0)  -->
<!DOCTYPE svg PUBLIC "-//W3C//DTD SVG 1.1//EN" "http://www.w3.org/Graphics/SVG/1.1/DTD/svg11.dtd">
<svg version="1.1" id="Layer_1" xmlns="http://www.w3.org/2000/svg" xmlns:xlink="http://www.w3.org/1999/xlink" x="0px" y="0px"
	 width="150px" height="150px" viewBox="0 0 150 150" enable-background="new 0 0 150 150" xml:space="preserve">
<g>
	<defs>
		<path id="SVGID_1_" d="M135,75c0-33.1-26.9-60-60-60c-33.1,0-60,26.9-60,60c0,33.1,26.9,60,60,60h60L135,75L135,75z"/>
	</defs>
	<clipPath id="SVGID_2_">
		<use xlink:href="#SVGID_1_"  overflow="visible"/>
	</clipPath>
	<circle clip-path="url(#SVGID_2_)" fill="none" stroke="#808080" stroke-miterlimit="10" cx="108.1" cy="96.3" r="2.9"/>
	<circle clip-path="url(#SVGID_2_)" fill="none" stroke="#B3B3B3" stroke-miterlimit="10" cx="110.9" cy="97.5" r="2.9"/>
	<circle clip-path="url(#SVGID_2_)" fill="none" stroke="#808080" stroke-miterlimit="10" cx="113.5" cy="99.3" r="2.9"/>
	<circle clip-path="url(#SVGID_2_)" fill="none" stroke="#B3B3B3" stroke-miterlimit="10" cx="115.6" cy="101.3" r="2.9"/>
	<circle clip-path="url(#SVGID_2_)" fill="none" stroke="#808080" stroke-miterlimit="10" cx="117.4" cy="103.4" r="2.9"/>
	<circle clip-path="url(#SVGID_2_)" fill="none" stroke="#B3B3B3" stroke-miterlimit="10" cx="118.5" cy="106.3" r="2.9"/>
	<circle clip-path="url(#SVGID_2_)" fill="none" stroke="#808080" stroke-miterlimit="10" cx="119.4" cy="109.3" r="2.9"/>
	<circle clip-path="url(#SVGID_2_)" fill="none" stroke="#B3B3B3" stroke-miterlimit="10" cx="120" cy="112.2" r="2.9"/>
	<circle clip-path="url(#SVGID_2_)" fill="none" stroke="#808080" stroke-miterlimit="10" cx="120" cy="115.2" r="2.9"/>
	<circle clip-path="url(#SVGID_2_)" fill="none" stroke="#B3B3B3" stroke-miterlimit="10" cx="119.4" cy="118.1" r="2.9"/>
	<circle clip-path="url(#SVGID_2_)" fill="none" stroke="#808080" stroke-miterlimit="10" cx="118.2" cy="121.1" r="2.9"/>
	<circle clip-path="url(#SVGID_2_)" fill="none" stroke="#B3B3B3" stroke-miterlimit="10" cx="116.4" cy="123.7" r="2.9"/>
	<circle clip-path="url(#SVGID_2_)" fill="none" stroke="#808080" stroke-miterlimit="10" cx="114.5" cy="126.1" r="2.9"/>
	<circle clip-path="url(#SVGID_2_)" fill="none" stroke="#B3B3B3" stroke-miterlimit="10" cx="112.3" cy="127.9" r="2.9"/>
	<circle clip-path="url(#SVGID_2_)" fill="none" stroke="#808080" stroke-miterlimit="10" cx="109.9" cy="129.6" r="2.9"/>
	<circle clip-path="url(#SVGID_2_)" fill="none" stroke="#B3B3B3" stroke-miterlimit="10" cx="106.9" cy="130.5" r="2.9"/>
	<circle clip-path="url(#SVGID_2_)" fill="none" stroke="#808080" stroke-miterlimit="10" cx="104" cy="131.5" r="2.9"/>
	<circle clip-path="url(#SVGID_2_)" fill="none" stroke="#808080" stroke-miterlimit="10" cx="101.1" cy="131.5" r="2.9"/>
	<circle clip-path="url(#SVGID_2_)" fill="none" stroke="#B3B3B3" stroke-miterlimit="10" cx="98.1" cy="130.9" r="2.9"/>
	<circle clip-path="url(#SVGID_2_)" fill="none" stroke="#808080" stroke-miterlimit="10" cx="95.2" cy="130.2" r="2.9"/>
	<circle clip-path="url(#SVGID_2_)" fill="none" stroke="#B3B3B3" stroke-miterlimit="10" cx="92.6" cy="129" r="2.9"/>
	<circle clip-path="url(#SVGID_2_)" fill="none" stroke="#808080" stroke-miterlimit="10" cx="90.5" cy="127.2" r="2.9"/>
	<circle clip-path="url(#SVGID_2_)" fill="none" stroke="#B3B3B3" stroke-miterlimit="10" cx="88.1" cy="125.6" r="2.9"/>
	<circle clip-path="url(#SVGID_2_)" fill="none" stroke="#808080" stroke-miterlimit="10" cx="85.8" cy="123.7" r="2.9"/>
	<circle clip-path="url(#SVGID_2_)" fill="none" stroke="#B3B3B3" stroke-miterlimit="10" cx="83.2" cy="122" r="2.9"/>
	<circle clip-path="url(#SVGID_2_)" fill="none" stroke="#808080" stroke-miterlimit="10" cx="80.7" cy="120.7" r="2.9"/>
	<circle clip-path="url(#SVGID_2_)" fill="none" stroke="#B3B3B3" stroke-miterlimit="10" cx="78" cy="119.5" r="2.9"/>
	<circle clip-path="url(#SVGID_2_)" fill="none" stroke="#808080" stroke-miterlimit="10" cx="75.2" cy="118.3" r="2.9"/>
	<circle clip-path="url(#SVGID_2_)" fill="none" stroke="#B3B3B3" stroke-miterlimit="10" cx="72.3" cy="117.4" r="2.9"/>
	<circle clip-path="url(#SVGID_2_)" fill="none" stroke="#808080" stroke-miterlimit="10" cx="69.4" cy="116.7" r="2.9"/>
	<circle clip-path="url(#SVGID_2_)" fill="none" stroke="#B3B3B3" stroke-miterlimit="10" cx="66.4" cy="116.1" r="2.9"/>
	<circle clip-path="url(#SVGID_2_)" fill="none" stroke="#808080" stroke-miterlimit="10" cx="63.5" cy="115.7" r="2.9"/>
	<circle clip-path="url(#SVGID_2_)" fill="none" stroke="#B3B3B3" stroke-miterlimit="10" cx="60.5" cy="115.5" r="2.9"/>
	<circle clip-path="url(#SVGID_2_)" fill="none" stroke="#B3B3B3" stroke-miterlimit="10" cx="54.8" cy="115.5" r="2.9"/>
	<circle clip-path="url(#SVGID_2_)" fill="none" stroke="#808080" stroke-miterlimit="10" cx="51.7" cy="115.8" r="2.9"/>
	<circle clip-path="url(#SVGID_2_)" fill="none" stroke="#B3B3B3" stroke-miterlimit="10" cx="48.8" cy="116.5" r="2.9"/>
	<circle clip-path="url(#SVGID_2_)" fill="none" stroke="#808080" stroke-miterlimit="10" cx="46" cy="117.3" r="2.9"/>
	<circle clip-path="url(#SVGID_2_)" fill="none" stroke="#B3B3B3" stroke-miterlimit="10" cx="43.2" cy="118.2" r="2.9"/>
	<circle clip-path="url(#SVGID_2_)" fill="none" stroke="#808080" stroke-miterlimit="10" cx="40.3" cy="119.2" r="2.9"/>
	<circle clip-path="url(#SVGID_2_)" fill="none" stroke="#B3B3B3" stroke-miterlimit="10" cx="36.8" cy="120.9" r="2.9"/>
	<circle clip-path="url(#SVGID_2_)" fill="none" stroke="#808080" stroke-miterlimit="10" cx="34.2" cy="122.3" r="2.9"/>
	<circle clip-path="url(#SVGID_2_)" fill="none" stroke="#808080" stroke-miterlimit="10" cx="57.6" cy="115.3" r="2.9"/>
</g>
<path fill="#FFBF5C" d="M77.1,80.9c-2,2-2.8,3.5-6.8,1.6C66.3,80.6,57,72.1,57,72.1s-8.5-9.3-10.4-13.3c-1.9-3.9-0.4-4.8,1.6-6.8
	c9.1-9,4.6-22.7,2.1-27.9c-2.6-5.2-12.3-3.3-12.3-3.3c-5.8,0.7-13.7,3.8-9.5,26.7c4.3,22.9,17.9,35.3,17.9,35.3s12.4,13.7,35.3,17.9
	c22.9,4.3,26-3.7,26.7-9.5c0,0,1.9-9.7-3.3-12.3C99.7,76.3,86.1,71.8,77.1,80.9z"/>
<path fill="#00AEEF" d="M94.4,66.7c-0.5,0.5-1.1,0.7-1.8,0.8c-1.5,0.1-2.7-1.1-2.8-2.5c-0.3-6.7-3.2-13-7.9-17.7s-11.1-7.6-17.8-7.9
	c-1.5-0.1-2.6-1.3-2.5-2.8c0.1-1.5,1.3-2.6,2.8-2.5c8,0.4,15.6,3.8,21.3,9.5c5.7,5.7,9,13.2,9.5,21.3C95.2,65.4,94.9,66.2,94.4,66.7
	z"/>
<path fill="#006584" d="M106.1,66c-0.4,0.5-1.1,0.7-1.7,0.8c-1.5,0.1-2.7-1.1-2.8-2.5C101,54.7,97,45.7,90.2,38.9
	c-6.8-6.8-15.8-10.8-25.4-11.3c-1.5-0.1-2.6-1.3-2.5-2.8c0.1-1.5,1.3-2.6,2.8-2.5c10.9,0.6,21.1,5.2,28.9,12.9
	c7.7,7.7,12.3,18,12.9,28.9C106.9,64.7,106.6,65.5,106.1,66z"/>
<path fill="#CC954C" d="M49.3,50.9c0.9-1,1.6-2.1,2.2-3.3c-5.8-13.2-7.7-22.8-8.3-27.1c-1.3-0.1-2.4,0-3.4,0.1
	C40.4,25,42.4,35.7,49.3,50.9z"/>
<path fill="#CC954C" d="M78.3,79.8c1-0.9,2.1-1.6,3.3-2.2c13.2,5.8,22.8,7.7,27.1,8.3c0.1,1.3,0,2.4-0.1,3.4
	C104.1,88.7,93.4,86.7,78.3,79.8z"/>
<path fill="none" stroke="#0F4260" stroke-width="5" stroke-linecap="round" stroke-miterlimit="10" d="M115.5,63.8
	c-0.6-27.4-22.8-49.5-50.3-49.9"/>
</svg>
