<?xml version="1.0" encoding="utf-8"?>
<!-- Generator: Adobe Illustrator 16.0.0, SVG Export Plug-In . SVG Version: 6.00 Build 0)  -->
<!DOCTYPE svg PUBLIC "-//W3C//DTD SVG 1.1//EN" "http://www.w3.org/Graphics/SVG/1.1/DTD/svg11.dtd">
<svg version="1.1" id="Layer_1" xmlns="http://www.w3.org/2000/svg" xmlns:xlink="http://www.w3.org/1999/xlink" x="0px" y="0px"
	 width="150px" height="150px" viewBox="0 0 150 150" enable-background="new 0 0 150 150" xml:space="preserve">
<path fill="#00331C" d="M64.9,90.7c-1.5,0-3.1-0.6-4.2-1.8c-2.3-2.3-2.3-6.2,0-8.5l12-12c2.3-2.3,6.2-2.3,8.5,0
	c2.3,2.3,2.3,6.1,0,8.5l-12,12C68,90.1,66.4,90.7,64.9,90.7z"/>
<path fill="#333333" d="M28.8,130.7c-2.6,0-5.1-1-7.1-2.9c-3.9-3.9-2.9-11.1-0.9-13.1l34-34.1c2-2,9.2-3,13.1,0.9
	c3.9,3.9,2.9,11.1,0.9,13.1l-34.1,34.1C32.9,130.7,31.4,130.7,28.8,130.7z"/>
<rect x="27.9" y="108.9" transform="matrix(-0.7071 -0.7071 0.7071 -0.7071 -14.3849 217.4481)" fill="#85A395" width="19.8" height="5.7"/>
<rect x="35.9" y="100.9" transform="matrix(-0.7071 -0.7071 0.7071 -0.7071 4.953 209.4334)" fill="#85A395" width="19.8" height="5.7"/>
<rect x="44" y="92.8" transform="matrix(-0.7071 -0.7072 0.7072 -0.7071 24.2903 201.4178)" fill="#85A395" width="19.8" height="5.7"/>
<circle fill="#00331C" cx="100.9" cy="48.6" r="38.1"/>
<circle fill="#8CD0B6" cx="100.9" cy="48.6" r="30"/>
<path fill="#FFFFFF" d="M106.9,32.6c0,3.3-2.7,6-6,6c-3.3,0-6-2.7-6-6c0-3.3,2.7-6,6-6C104.3,26.6,106.9,29.3,106.9,32.6z"/>
</svg>
