<?xml version="1.0" encoding="utf-8"?>
<!-- Generator: Adobe Illustrator 16.0.0, SVG Export Plug-In . SVG Version: 6.00 Build 0)  -->
<!DOCTYPE svg PUBLIC "-//W3C//DTD SVG 1.1//EN" "http://www.w3.org/Graphics/SVG/1.1/DTD/svg11.dtd">
<svg version="1.1" id="Layer_1" xmlns="http://www.w3.org/2000/svg" xmlns:xlink="http://www.w3.org/1999/xlink" x="0px" y="0px"
	 width="150px" height="150px" viewBox="0 0 150 150" enable-background="new 0 0 150 150" xml:space="preserve">
<rect x="50.6" y="123.8" fill="#562045" width="48.8" height="4.1"/>
<rect x="50.6" y="131.9" fill="#562045" width="48.8" height="4.1"/>
<rect x="50.6" y="115.6" fill="#562045" width="48.8" height="4.1"/>
<rect x="52.7" y="111.6" fill="#AA8FA2" width="44.7" height="4.1"/>
<rect x="52.7" y="119.7" fill="#AA8FA2" width="44.7" height="4.1"/>
<rect x="52.7" y="127.8" fill="#AA8FA2" width="44.7" height="4.1"/>
<polygon fill="#AA8FA2" points="83.1,140 66.9,140 64.8,135.9 85.2,135.9 "/>
<path fill="#E224B1" d="M81.1,10.5c-2-0.3-4-0.5-6.1-0.5c-22.4,0-40.6,18.2-40.6,40.6c0,24.4,18.3,24.4,18.3,56.9h12.2
	C64.8,75,46.6,75,46.6,50.6C46.6,30.3,61.6,13.5,81.1,10.5z"/>
<path fill="#FF15B7" d="M81.1,10.5c-19.5,2.9-34.5,19.8-34.5,40.1c0,24.4,18.3,24.4,18.3,56.9h32.5c0-32.5,18.3-32.5,18.3-56.9
	C115.6,30.3,100.6,13.5,81.1,10.5z"/>
<path fill="#FFFFFF" d="M68.8,107.5l-1.7-18.2l-5.8-18.6c-0.2-0.8,0.2-1.6,1-1.9c0.8-0.2,1.6,0.2,1.9,1l5.9,19l1.8,18.6L68.8,107.5
	L68.8,107.5z"/>
<path fill="#FFFFFF" d="M81.2,107.5l1.7-18.2l5.8-18.6c0.2-0.8-0.2-1.6-1-1.9c-0.8-0.2-1.6,0.2-1.9,1l-5.9,19l-1.8,18.6L81.2,107.5
	L81.2,107.5z"/>
<circle fill="none" stroke="#FFFFFF" stroke-linecap="round" stroke-miterlimit="10" cx="79.4" cy="72.5" r="3.5"/>
<circle fill="none" stroke="#FFFFFF" stroke-linecap="round" stroke-miterlimit="10" cx="83.8" cy="72.5" r="3.5"/>
<circle fill="none" stroke="#FFFFFF" stroke-linecap="round" stroke-miterlimit="10" cx="75" cy="72.5" r="3.5"/>
<circle fill="none" stroke="#FFFFFF" stroke-linecap="round" stroke-miterlimit="10" cx="70.6" cy="72.5" r="3.5"/>
<circle fill="none" stroke="#FFFFFF" stroke-linecap="round" stroke-miterlimit="10" cx="66.2" cy="72.5" r="3.5"/>
<path opacity="0.5" fill="#FF6CD9" enable-background="new    " d="M88.9,17.9c1.3,0.4,0.2-0.4,2.9,1.6c6.2,4.7,16.4,15.3,16.4,33.7
	c0,2.9-0.3,5.7-0.9,8.3c-0.9,4.4-1.3,4.4-1.7,4.2c-0.4-0.1-0.7-0.5-0.3-4.8c0.4-4.6,0-9.5-2.2-13.2C98,39.4,87.5,39,87.2,20.6
	C87.2,19.4,87.7,17.4,88.9,17.9z"/>
<path opacity="0.5" fill="#FFFFFF" enable-background="new    " d="M81.1,10.5c-2-0.3-4-0.5-6.1-0.5c-22.4,0-40.6,18.2-40.6,40.6
	c0,24.4,18.3,24.4,18.3,56.9h12.2h32.5c0-32.5,18.3-32.5,18.3-56.9C115.6,30.3,100.6,13.5,81.1,10.5z"/>
<g>
	<defs>
		<path id="SVGID_1_" d="M81.1,10.5c-2-0.3-4-0.5-6.1-0.5c-22.4,0-40.6,18.2-40.6,40.6c0,24.4,18.3,24.4,18.3,56.9h44.7
			c0-32.5,18.3-32.5,18.3-56.9C115.7,30.3,100.7,13.5,81.1,10.5z"/>
	</defs>
	<clipPath id="SVGID_2_">
		<use xlink:href="#SVGID_1_"  overflow="visible"/>
	</clipPath>
	<g clip-path="url(#SVGID_2_)">
		<circle opacity="9.999999e-02" fill="#FCEE21" cx="75.1" cy="72.5" r="6.7"/>
		<path opacity="9.999999e-02" fill="#FCEE21" d="M85.5,72.5c0-5.8-4.7-10.5-10.5-10.5c-5.8,0-10.5,4.7-10.5,10.5
			c0,5.8,4.7,10.5,10.5,10.5C80.8,83,85.5,78.3,85.5,72.5z"/>
		<path opacity="9.999999e-02" fill="#FCEE21" d="M91.4,72.5c0-9-7.3-16.4-16.4-16.4c-9,0-16.4,7.3-16.4,16.4
			c0,9,7.3,16.4,16.4,16.4C84.1,88.9,91.4,81.6,91.4,72.5z"/>
		<path opacity="9.999999e-02" fill="#FCEE21" d="M100.7,72.5c0-14.1-11.5-25.6-25.6-25.6c-14.1,0-25.6,11.5-25.6,25.6
			c0,14.1,11.5,25.6,25.6,25.6C89.2,98.1,100.7,86.7,100.7,72.5z"/>
		<path opacity="9.999999e-02" fill="#FCEE21" d="M115.1,72.5c0-22.1-17.9-40-40-40c-22.1,0-40,17.9-40,40c0,22.1,17.9,40,40,40
			C97.1,112.5,115.1,94.6,115.1,72.5z"/>
		<path opacity="9.999999e-02" fill="#FCEE21" d="M137.6,72.5c0-34.5-28-62.5-62.5-62.5c-34.5,0-62.5,28-62.5,62.5
			c0,34.5,28,62.5,62.5,62.5C109.6,135,137.6,107,137.6,72.5z"/>
	</g>
</g>
</svg>
