<?xml version="1.0" encoding="utf-8"?>
<!-- Generator: Adobe Illustrator 16.0.0, SVG Export Plug-In . SVG Version: 6.00 Build 0)  -->
<!DOCTYPE svg PUBLIC "-//W3C//DTD SVG 1.1//EN" "http://www.w3.org/Graphics/SVG/1.1/DTD/svg11.dtd">
<svg version="1.1" id="Layer_1" xmlns="http://www.w3.org/2000/svg" xmlns:xlink="http://www.w3.org/1999/xlink" x="0px" y="0px"
	 width="77px" height="77px" viewBox="0 0 77 77" enable-background="new 0 0 77 77" xml:space="preserve">
<g id="Layer_14_5_">
	<g>
		<g>
			<path fill="#FFFFFF" d="M47.794,0L31.862,15.931v13.276l2.656,2.654L0,66.379v7.965L2.656,77h7.964l34.517-34.519l2.656,2.655
				H61.07l15.931-15.93v-5.311L53.104,0H47.794z M67.707,25.224l-3.982,3.983H61.07L47.794,15.931v-2.656l3.983-3.983h2.654
				l13.275,13.276V25.224z"/>
		</g>
		<g>
			<polygon fill="#E6E6E6" points="35.847,57.086 30.536,57.086 38.5,49.12 38.5,54.432 			"/>
		</g>
		<g>
			<polygon fill="#E6E6E6" points="26.552,67.705 19.915,67.705 27.88,59.741 27.88,66.379 			"/>
		</g>
		<g>
			<polygon fill="#E6E6E6" points="30.536,61.069 26.552,61.069 31.862,55.759 31.862,59.741 			"/>
		</g>
		<g>
			<polygon fill="#E6E6E6" points="19.915,71.689 15.932,71.689 21.242,66.379 21.242,70.362 			"/>
		</g>
		<g>
			<polygon fill="#E6E6E6" points="34.519,42.481 6.639,70.362 3.983,70.362 3.983,67.705 31.862,39.827 			"/>
		</g>
		<g>
			<polygon fill="#E6E6E6" points="50.449,45.137 47.794,45.137 45.138,42.481 34.519,31.861 31.862,29.207 31.862,26.551 			"/>
		</g>
		<g>
			<g>
				<polygon fill="#E6E6E6" points="61.07,31.861 45.138,15.931 47.794,13.275 47.794,15.931 61.07,29.207 63.725,29.207 				"/>
			</g>
		</g>
	</g>
</g>
</svg>
