<?xml version="1.0" encoding="utf-8"?>
<!-- Generator: Adobe Illustrator 16.0.0, SVG Export Plug-In . SVG Version: 6.00 Build 0)  -->
<!DOCTYPE svg PUBLIC "-//W3C//DTD SVG 1.1//EN" "http://www.w3.org/Graphics/SVG/1.1/DTD/svg11.dtd">
<svg version="1.1" id="Layer_1" xmlns="http://www.w3.org/2000/svg" xmlns:xlink="http://www.w3.org/1999/xlink" x="0px" y="0px"
	 width="77px" height="77px" viewBox="0 0 77 77" enable-background="new 0 0 77 77" xml:space="preserve">
<g id="Layer_14_7_">
	<g>
		<g>
			<path fill="#FFBF5C" d="M47.8,0L31.9,15.9v13.3l2.7,2.7L0,66.4v8L2.7,77h8l34.5-34.5l2.7,2.7h13.3L77,29.2v-5.3L53.1,0H47.8z
				 M67.7,25.2l-4,4h-2.7L47.8,15.9v-2.7l4-4h2.7l13.3,13.3V25.2z"/>
		</g>
		<g>
			<polygon fill="#EDAE53" points="35.8,57.1 30.5,57.1 38.5,49.1 38.5,54.4 			"/>
		</g>
		<g>
			<polygon fill="#EDAE53" points="26.6,67.7 19.9,67.7 27.9,59.7 27.9,66.4 			"/>
		</g>
		<g>
			<polygon fill="#EDAE53" points="30.5,61.1 26.6,61.1 31.9,55.8 31.9,59.7 			"/>
		</g>
		<g>
			<polygon fill="#EDAE53" points="19.9,71.7 15.9,71.7 21.2,66.4 21.2,70.4 			"/>
		</g>
		<g>
			<polygon fill="#EDAE53" points="34.5,42.5 6.6,70.4 4,70.4 4,67.7 31.9,39.8 			"/>
		</g>
		<g>
			<polygon fill="#EDAE53" points="50.4,45.1 47.8,45.1 45.1,42.5 34.5,31.9 31.9,29.2 31.9,26.6 			"/>
		</g>
		<g>
			<g>
				<polygon fill="#EDAE53" points="61.1,31.9 45.1,15.9 47.8,13.3 47.8,15.9 61.1,29.2 63.7,29.2 				"/>
			</g>
		</g>
	</g>
</g>
</svg>
