<?xml version="1.0" encoding="utf-8"?>
<!-- Generator: Adobe Illustrator 16.0.0, SVG Export Plug-In . SVG Version: 6.00 Build 0)  -->
<!DOCTYPE svg PUBLIC "-//W3C//DTD SVG 1.1//EN" "http://www.w3.org/Graphics/SVG/1.1/DTD/svg11.dtd">
<svg version="1.1" id="Layer_1" xmlns="http://www.w3.org/2000/svg" xmlns:xlink="http://www.w3.org/1999/xlink" x="0px" y="0px"
	 width="150px" height="150px" viewBox="0 0 150 150" enable-background="new 0 0 150 150" xml:space="preserve">
<rect x="20.1" y="23.1" fill="#E6E6E6" width="109.7" height="77.2"/>
<path fill="#333333" d="M129.9,15H20.1c-2.2,0-4.1,1.8-4.1,4.1s1.8,4.1,4.1,4.1h109.7c2.2,0,4.1-1.8,4.1-4.1S132.1,15,129.9,15z"/>
<rect x="28.3" y="31.3" fill="#FFFFFF" width="12.2" height="61"/>
<rect x="44.5" y="31.3" fill="#FFFFFF" width="12.2" height="61"/>
<rect x="60.8" y="31.3" fill="#FFFFFF" width="12.2" height="61"/>
<rect x="77" y="31.3" fill="#FFFFFF" width="12.2" height="61"/>
<rect x="93.3" y="31.3" fill="#FFFFFF" width="12.2" height="61"/>
<rect x="109.5" y="31.3" fill="#FFFFFF" width="12.2" height="61"/>
<rect x="28.3" y="55.6" fill="#FF1D25" width="12.2" height="36.6"/>
<rect x="44.5" y="47.5" fill="#FF1D25" width="12.2" height="44.7"/>
<rect x="60.8" y="63.8" fill="#FF1D25" width="12.2" height="28.5"/>
<rect x="77" y="51.6" fill="#FF1D25" width="12.2" height="40.6"/>
<rect x="93.3" y="59.7" fill="#FF1D25" width="12.2" height="32.5"/>
<rect x="109.5" y="43.5" fill="#FF1D25" width="12.2" height="48.8"/>
<path fill="#333333" d="M95.3,116.6H79.1v-16.3h-8.1v16.3H54.7c-2.2,0-4.1,1.8-4.1,4.1s1.8,4.1,4.1,4.1h40.6c2.2,0,4.1-1.8,4.1-4.1
	S97.6,116.6,95.3,116.6z"/>
</svg>
