<?xml version="1.0" encoding="utf-8"?>
<!-- Generator: Adobe Illustrator 16.0.0, SVG Export Plug-In . SVG Version: 6.00 Build 0)  -->
<!DOCTYPE svg PUBLIC "-//W3C//DTD SVG 1.1//EN" "http://www.w3.org/Graphics/SVG/1.1/DTD/svg11.dtd">
<svg version="1.1" id="Layer_1" xmlns="http://www.w3.org/2000/svg" xmlns:xlink="http://www.w3.org/1999/xlink" x="0px" y="0px"
	 width="150px" height="150px" viewBox="0 0 150 150" enable-background="new 0 0 150 150" xml:space="preserve">
<rect x="20.5" y="37.2" transform="matrix(-0.7071 -0.7071 0.7071 -0.7071 95.1245 172.7297)" fill="#41C19D" width="125.7" height="58.9"/>
<path fill="#3FA49A" d="M109.7,93.1c-2.3,2.3-6,2.3-8.3,0c-2.3-2.3-2.3-6,0-8.3c2.3-2.3,6-2.3,8.3,0C112,87,112,90.8,109.7,93.1z"/>
<circle fill="#3FA49A" cx="61.1" cy="44.4" r="5.9"/>
<path fill="#2F988C" d="M95.8,79.2c-6.9,6.9-18.1,6.9-25,0c-6.9-6.9-6.9-18.1,0-25s18.1-6.9,25,0C102.7,61.1,102.7,72.3,95.8,79.2z"
	/>
<rect x="-1.8" y="86.9" transform="matrix(-0.7071 -0.7071 0.7071 -0.7071 41.4592 194.9591)" fill="#2F988C" width="125.7" height="3.9"/>
<rect x="-4.5" y="89.7" transform="matrix(-0.7071 -0.7071 0.7071 -0.7071 34.7512 197.7362)" fill="#3FA49A" width="125.7" height="3.9"/>
<rect x="-7.3" y="92.5" transform="matrix(-0.7071 -0.7071 0.7071 -0.7071 28.0428 200.516)" fill="#2F988C" width="125.7" height="3.9"/>
<rect x="-10.1" y="95.3" transform="matrix(-0.7071 -0.7071 0.7071 -0.7071 21.3339 203.2948)" fill="#3FA49A" width="125.7" height="3.9"/>
<rect x="-12.9" y="98" transform="matrix(-0.7071 -0.7071 0.7071 -0.7071 14.6261 206.073)" fill="#2F988C" width="125.7" height="3.9"/>
<rect x="-15.7" y="100.8" transform="matrix(-0.7071 -0.7071 0.7071 -0.7071 7.9189 208.8524)" fill="#3FA49A" width="125.7" height="3.9"/>
<path fill="#3FA49A" d="M59.7,1.4L18,43L107,132l41.7-41.7L59.7,1.4z M132,101.4l-13.9,13.9c-6.1-6.1-15.3-6.9-22.2,0L34.7,54.2
	c6.9-6.9,6.1-16.1,0-22.2L48.6,18c6.1,6.1,16.7,5.6,22.2,0L132,79.2C126.4,84.7,125.8,95.3,132,101.4z"/>
<rect x="77.6" y="36.1" transform="matrix(-0.7071 -0.7071 0.7071 -0.7071 100.1584 170.6436)" fill="#666666" width="15.7" height="57"/>
<rect x="47" y="80.4" transform="matrix(-0.7071 -0.7071 0.7071 -0.7071 26.3655 201.209)" fill="#333333" width="15.7" height="29.5"/>
</svg>
