<?xml version="1.0" encoding="utf-8"?>
<!-- Generator: Adobe Illustrator 16.0.0, SVG Export Plug-In . SVG Version: 6.00 Build 0)  -->
<!DOCTYPE svg PUBLIC "-//W3C//DTD SVG 1.1//EN" "http://www.w3.org/Graphics/SVG/1.1/DTD/svg11.dtd">
<svg version="1.1" id="Layer_1" xmlns="http://www.w3.org/2000/svg" xmlns:xlink="http://www.w3.org/1999/xlink" x="0px" y="0px"
	 width="150px" height="150px" viewBox="0 0 150 150" enable-background="new 0 0 150 150" xml:space="preserve">
<path fill="#FFE086" d="M104.8,40H44.6c-2.8,0-5,2.2-5,5v30.8l17.6,12.5l17.6-30.1l17.6,17.6l17.6-17.6V45.1
	C109.8,42.3,107.6,40,104.8,40z"/>
<path fill="#514015" d="M74.7,58.3L57.1,88.4L39.6,75.9v31.9c0,2.8,2.2,5,5,5h60.2c2.8,0,5-2.2,5-5V58.3L92.2,75.9L74.7,58.3z"/>
<rect x="37.5" y="80.3" transform="matrix(-0.8137 -0.5812 0.5812 -0.8137 39.9031 177.133)" fill="#FFFFFF" width="21.6" height="3.8"/>
<polygon fill="#FFFFFF" points="40.3,77.6 15.2,88.5 13.7,85.1 38.8,74.2 "/>
<circle fill="#FFC20E" stroke="#FFFFFF" stroke-width="3" stroke-miterlimit="10" cx="39.6" cy="75.9" r="5"/>
<circle fill="#FFC20E" stroke="#FFFFFF" stroke-width="3" stroke-miterlimit="10" cx="14" cy="86.7" r="5"/>
<rect x="64" y="56" transform="matrix(-0.8638 -0.5038 0.5038 -0.8638 85.835 169.9898)" fill="#FFFFFF" width="3.8" height="34.9"/>
<polygon fill="#FFFFFF" points="121.2,34.7 124.5,36.6 111.5,59.1 108.2,57.2 "/>
<circle fill="#FFC20E" stroke="#FFFFFF" stroke-width="3" stroke-miterlimit="10" cx="57.1" cy="88.4" r="5"/>
<rect x="70.6" y="65.9" transform="matrix(-0.6823 -0.731 0.731 -0.6823 90.8646 174.9875)" fill="#FFFFFF" width="25.7" height="3.8"/>
<circle fill="#FFC20E" stroke="#FFFFFF" stroke-width="3" stroke-miterlimit="10" cx="74.7" cy="58.3" r="5"/>
<rect x="99.1" y="54.7" transform="matrix(-0.7073 -0.7069 0.7069 -0.7073 125.0134 186.0052)" fill="#FFFFFF" width="3.8" height="24.8"/>
<circle fill="#FFC20E" stroke="#FFFFFF" stroke-width="3" stroke-miterlimit="10" cx="92.2" cy="75.9" r="5"/>
<circle fill="#FFC20E" stroke="#FFFFFF" stroke-width="3" stroke-miterlimit="10" cx="109.8" cy="58.3" r="5"/>
<circle fill="#FFC20E" stroke="#FFFFFF" stroke-width="3" stroke-miterlimit="10" cx="122.9" cy="35.7" r="5"/>
</svg>
