<?xml version="1.0" encoding="utf-8"?>
<!-- Generator: Adobe Illustrator 16.0.0, SVG Export Plug-In . SVG Version: 6.00 Build 0)  -->
<!DOCTYPE svg PUBLIC "-//W3C//DTD SVG 1.1//EN" "http://www.w3.org/Graphics/SVG/1.1/DTD/svg11.dtd">
<svg version="1.1" id="Layer_1" xmlns="http://www.w3.org/2000/svg" xmlns:xlink="http://www.w3.org/1999/xlink" x="0px" y="0px"
	 width="150px" height="150px" viewBox="0 0 150 150" enable-background="new 0 0 150 150" xml:space="preserve">
<rect x="24.5" y="36" fill="#333333" width="101" height="86.1"/>
<rect x="32" y="43.4" fill="#80D6F7" width="86.1" height="71.1"/>
<path fill="#EBF0F2" d="M125.5,24.7c0-2.1-1.7-3.7-3.7-3.7H28.2c-2.1,0-3.7,1.7-3.7,3.7V36h101V24.7z"/>
<path fill="#D3D7D9" d="M24.5,125.8c0,2.1,1.7,3.7,3.7,3.7h93.6c2.1,0,3.7-1.7,3.7-3.7V122h-101V125.8z"/>
<circle fill="#F05F50" cx="35.7" cy="28.5" r="3.7"/>
<circle fill="#FFBF5C" cx="46.9" cy="28.5" r="3.7"/>
<circle fill="#41C19D" cx="58.2" cy="28.5" r="3.7"/>
<path fill="#FFFFFF" d="M106.3,77.7l-9.4-9.4c-0.7-0.7-1.9-0.7-2.6,0c-0.7,0.7-0.7,1.9,0,2.6l8,8l-8,8c-0.7,0.7-0.7,1.9,0,2.6
	c0.4,0.4,0.8,0.5,1.3,0.5s1-0.2,1.3-0.5l9.4-9.4C107,79.6,107,78.4,106.3,77.7z"/>
<path fill="#FFFFFF" d="M47.7,79l8-8c0.7-0.7,0.7-1.9,0-2.6c-0.7-0.7-1.9-0.7-2.6,0l-9.4,9.4c-0.7,0.7-0.7,1.9,0,2.6l9.4,9.4
	c0.4,0.4,0.8,0.5,1.3,0.5c0.5,0,1-0.2,1.3-0.5c0.7-0.7,0.7-1.9,0-2.6L47.7,79z"/>
<path fill="#FFFFFF" d="M65.6,90.2c-0.5,0-1-0.2-1.3-0.5c-0.7-0.7-0.7-1.9,0-2.6L83,68.3c0.7-0.7,1.9-0.7,2.6,0
	c0.7,0.7,0.7,1.9,0,2.6L67,89.7C66.6,90,66.1,90.2,65.6,90.2z"/>
</svg>
