<?xml version="1.0" encoding="utf-8"?>
<!-- Generator: Adobe Illustrator 16.0.0, SVG Export Plug-In . SVG Version: 6.00 Build 0)  -->
<!DOCTYPE svg PUBLIC "-//W3C//DTD SVG 1.1//EN" "http://www.w3.org/Graphics/SVG/1.1/DTD/svg11.dtd">
<svg version="1.1" id="Layer_1" xmlns="http://www.w3.org/2000/svg" xmlns:xlink="http://www.w3.org/1999/xlink" x="0px" y="0px"
	 width="150px" height="150px" viewBox="0 0 150 150" enable-background="new 0 0 150 150" xml:space="preserve">
<rect x="33.9" y="13.3" fill="#FFBF5C" width="88.2" height="120.3"/>
<rect x="33.9" y="133.6" fill="#EDAE53" width="88.2" height="4.1"/>
<rect x="72.1" y="35.4" fill="#A35D00" width="38.1" height="3.9"/>
<rect x="58" y="35.4" fill="#A35D00" width="10.2" height="3.9"/>
<rect x="58" y="47.3" fill="#A35D00" width="52.2" height="4.1"/>
<rect x="58" y="59.5" fill="#A35D00" width="52.2" height="3.9"/>
<rect x="58" y="71.4" fill="#A35D00" width="52.2" height="4.1"/>
<rect x="58" y="83.5" fill="#A35D00" width="52.2" height="4.1"/>
<rect x="58" y="95.7" fill="#A35D00" width="52.2" height="3.9"/>
<rect x="58" y="107.6" fill="#A35D00" width="40.1" height="4.1"/>
<circle fill="#333333" cx="41.9" cy="37.4" r="4"/>
<path fill="#80D6F7" d="M41.9,35.4h-12c-1.1,0-2,0.8-2,1.9s0.9,1.9,2,1.9h12c1.1,0,2-0.8,2-1.9S43,35.4,41.9,35.4z"/>
<circle fill="#333333" cx="41.9" cy="49.4" r="4"/>
<path fill="#80D6F7" d="M41.9,47.3h-12c-1.1,0-2,1-2,2.1c0,1.1,0.9,2.1,2,2.1h12c1.1,0,2-1,2-2.1C43.9,48.3,43,47.3,41.9,47.3z"/>
<circle fill="#333333" cx="41.9" cy="61.5" r="4"/>
<path fill="#80D6F7" d="M41.9,59.5h-12c-1.1,0-2,0.8-2,1.9c0,1.1,0.9,1.9,2,1.9h12c1.1,0,2-0.8,2-1.9C43.9,60.3,43,59.5,41.9,59.5z"
	/>
<circle fill="#333333" cx="41.9" cy="73.5" r="4"/>
<path fill="#80D6F7" d="M41.9,71.4h-12c-1.1,0-2,1-2,2.1s0.9,2.1,2,2.1h12c1.1,0,2-1,2-2.1S43,71.4,41.9,71.4z"/>
<circle fill="#333333" cx="41.9" cy="85.5" r="4"/>
<path fill="#80D6F7" d="M41.9,83.5h-12c-1.1,0-2,1-2,2.1s0.9,2.1,2,2.1h12c1.1,0,2-1,2-2.1S43,83.5,41.9,83.5z"/>
<circle fill="#333333" cx="41.9" cy="97.6" r="4"/>
<path fill="#80D6F7" d="M41.9,95.7h-12c-1.1,0-2,0.8-2,1.9c0,1.1,0.9,1.9,2,1.9h12c1.1,0,2-0.8,2-1.9C43.9,96.5,43,95.7,41.9,95.7z"
	/>
<circle fill="#333333" cx="41.9" cy="109.6" r="4"/>
<path fill="#80D6F7" d="M41.9,107.6h-12c-1.1,0-2,1-2,2.1s0.9,2.1,2,2.1h12c1.1,0,2-1,2-2.1S43,107.6,41.9,107.6z"/>
</svg>
