<?xml version="1.0" encoding="utf-8"?>
<!-- Generator: Adobe Illustrator 16.0.0, SVG Export Plug-In . SVG Version: 6.00 Build 0)  -->
<!DOCTYPE svg PUBLIC "-//W3C//DTD SVG 1.1//EN" "http://www.w3.org/Graphics/SVG/1.1/DTD/svg11.dtd">
<svg version="1.1" id="Layer_1" xmlns="http://www.w3.org/2000/svg" xmlns:xlink="http://www.w3.org/1999/xlink" x="0px" y="0px"
	 width="114px" height="49px" viewBox="0 0 114 49" enable-background="new 0 0 114 49" xml:space="preserve">
<g>
	<path fill="#FFFFFF" d="M50.8,23.9c-1,0-1.9,0.8-1.9,1.8V40c0,3-2.4,5.4-5.4,5.4c-2.9,0-5.4-2.4-5.4-5.4V25.7c0-1-0.8-1.8-1.8-1.8
		s-1.8,0.8-1.8,1.8V40c0,4.9,4.1,9,9.1,9s9.1-4.1,9.1-9V25.7C52.7,24.7,51.8,23.9,50.8,23.9z"/>
	<path fill="#FFFFFF" d="M103.7,25.8c0.2-0.3,0.3-0.7,0.3-1.1c0-1-0.8-1.8-1.8-1.8c-0.601,0-1,0.1-1.4,0.7L87.9,42v-9.5
		c0-4.9-4-9-9-9c-3,0-5.601,1.4-7.2,3.6c-1.601-2.2-4.2-3.6-7.2-3.6c-5,0-9,4.1-9,9v14.3c0,1,0.8,1.8,1.8,1.8s1.8-0.8,1.8-1.8V32.5
		c0-3,2.5-5.4,5.4-5.4S69.9,29.4,70,32.4c0,0.1,0.1,0.1,0.1,0.199V46.9c0,1,0.7,1.8,1.7,1.8l0,0H71.9c1,0,1.899-0.8,1.899-1.8V32.5
		c0-0.1-0.1-0.1-0.1-0.2C73.8,29.4,76.2,27,79.1,27c2.9,0,5.4,2.4,5.4,5.4v14.3c0,0.8,0.5,1.5,1.2,1.7c0.3,0.199,0.7,0.3,1,0.3
		c0.5,0,1.2-0.3,1.5-0.7l10.3-14.8c0.2-0.2,0.3,0,0.3,0c1.8,4.7,5.8,6.1,5.8,9.3c0,1.5-1.3,2.8-2.8,2.8c-2.1,0-1.899-1.7-3.5-1.7
		c-1,0-1.8,0.801-1.8,1.801c0,1.6,2.6,3.5,5.3,3.5c3.5,0,6.4-2.9,6.4-6.4c0-5.2-6.4-8.7-6.4-12.3C101.7,28.5,103.5,26.3,103.7,25.8z
		"/>
	<path fill="#FFFFFF" d="M23.6,23.5c-3,0-5.6,1.4-7.3,3.6c-1.6-2.2-4.3-3.6-7.3-3.6c-5,0-9.1,4.1-9.1,9v14.3c0,1,0.8,1.8,1.8,1.8
		s1.8-0.8,1.8-1.8V32.5c0-3,2.5-5.4,5.5-5.4c2.9,0,5.4,2.301,5.5,5.301c0,0.1,0,0.1,0,0.199V46.9c0,1,0.8,1.8,1.8,1.8l0,0l0,0
		c1,0,1.8-0.8,1.8-1.8V32.5c0-0.1,0-0.1,0-0.2c0.1-2.899,2.5-5.3,5.4-5.3s5.4,2.4,5.4,5.4v14.3c0,1,0.9,1.8,1.9,1.8s1.9-0.8,1.9-1.8
		V32.5C32.7,27.6,28.6,23.5,23.6,23.5z"/>
	<path fill="#FFFFFF" d="M43.4,19.3c0.2-0.2,0.4-0.5,0.4-0.9c0-0.7-0.5-1.2-1.2-1.2c-0.3,0-0.5,0.1-0.8,0.3
		c-0.8,0.7-1.8,1.1-3.1,1.1c-1.9,0-3.4-1.2-3.7-3.1c0-0.3,0.2-0.4,0.2-0.4H43c0.8,0,1.4-0.5,1.4-1.4c0-3-2-6.3-6.1-6.3
		c-3.7,0-6.3,3.1-6.3,6.8l0,0c0,4,2.9,6.7,6.6,6.7C40.8,21,42.2,20.4,43.4,19.3z M35.1,13c0.2-1.7,1.5-3.1,3.3-3.1
		c2,0,3.1,1.5,3.3,3.4h-6.4C35,13.2,35.1,13,35.1,13z"/>
	<path fill="#FFFFFF" d="M57.1,19.4v-6.9c0-3-1.7-5-4.6-5c-2,0-3.2,1.1-3.8,2c-0.2,0.2-0.1-0.1-0.1-0.1V9.1c0-0.8-0.8-1.5-1.7-1.5
		c-0.8,0-1.6,0.7-1.6,1.5v10.3c0,0.8,0.8,1.5,1.6,1.5c0.8,0,1.7-0.6,1.7-1.5v-6c0-2,1.2-3.2,3-3.2c1.8,0,2.8,1.2,2.8,3.2v6
		c0,0.8,0.6,1.5,1.4,1.5C56.6,20.8,57.1,20.2,57.1,19.4z"/>
	<path fill="#FFFFFF" d="M58.7,10.5H59.1v6.6c0,2.8,1.601,3.8,3.801,3.8c0.8,0,1.399-0.1,2.1-0.3c0.4-0.2,0.8-0.6,0.8-1.2
		c0-0.7-0.6-1.2-1.2-1.2c-0.1,0-0.3,0.1-0.6,0.1c-1,0-1.5-0.5-1.5-1.6v-6.1c0-0.3,0.1-0.1,0.1-0.1h2c0.7,0,1.301-0.7,1.301-1.4
		c0-0.7-0.601-1.4-1.301-1.4h-2c-0.3,0-0.1-0.3-0.1-0.3V5.6c0-0.8-0.8-1.5-1.6-1.5c-0.801,0-1.7,0.7-1.7,1.5v1.9
		c0,0.3-0.101,0.3-0.101,0.3H58.9c-0.7,0-1.301,0.7-1.301,1.4C57.4,9.8,58,10.5,58.7,10.5z"/>
	<path fill="#FFFFFF" d="M68.5,7.6c-0.8,0-1.5,0.7-1.5,1.5v10.3c0,0.8,0.7,1.5,1.5,1.5s1.5-0.6,1.5-1.5V9.1
		C70.1,8.3,69.4,7.6,68.5,7.6z"/>
	<path fill="#FFFFFF" d="M68.5,5.9c1,0,1.8-0.6,1.8-1.5V4.3c0-0.9-0.8-1.4-1.8-1.4s-1.8,0.6-1.8,1.4v0.1C66.8,5.3,67.6,5.9,68.5,5.9
		z"/>
	<path fill="#FFFFFF" d="M75.8,21c2,0,3.3-0.8,4-1.7c0.2-0.2,0.2,0,0.2,0v0.2c0,0.7,0.5,1.3,1.4,1.3c0.8,0,1.399-0.6,1.399-1.4V13
		c0-1.7-0.3-3.1-1.3-4c-0.9-0.9-2.3-1.4-4.2-1.4c-1.7,0-2.899,0.3-4.1,0.8c-0.4,0.2-0.8,0.6-0.8,1.2c0,0.7,0.6,1.2,1.3,1.2
		c0.1,0,0.3,0,0.5-0.1c0.8-0.3,1.7-0.5,2.8-0.5c2.1,0,3.2,1,3.2,2.8v0.3c-0.8-0.3-2-0.5-3.5-0.5c-3.2,0-5.3,1.4-5.3,4.2l0,0
		C71.1,19.6,73.4,21,75.8,21z M73.9,16.8c0-1.3,1.199-2.2,3.1-2.2c1.2,0,2.2,0.2,3,0.5V16c0,1.6-1.5,2.8-3.5,2.8
		C75,18.8,73.9,18.1,73.9,16.8L73.9,16.8z"/>
	<path fill="#FFFFFF" d="M86,20.8c0.8,0,1.7-0.6,1.7-1.5V4.2c0-0.8-0.8-1.5-1.7-1.5c-0.8,0-1.6,0.7-1.6,1.5v15.2
		C84.3,20.2,85.2,20.8,86,20.8z"/>
	<path fill="#FFFFFF" d="M111.5,43.7c-1.4,0-2.5,1.1-2.5,2.5c0,1.399,1.1,2.5,2.5,2.5s2.5-1.101,2.5-2.5
		C114,44.8,112.9,43.7,111.5,43.7z"/>
	<path fill="#FFFFFF" d="M8.1,20.9c1.7,0,3.2-0.6,4.4-1.6c0.1-0.1,0.2-0.2,0.3-0.3c0.1-0.1,0.2-0.1,0.2-0.2l4.2-5.8
		c0.5,1.1,1.2,1.8,1.8,2.4c0.7,0.7,1.1,1.2,1.1,1.9c0,0.6-0.5,1.1-1.1,1.1c-0.4,0-0.6-0.1-0.8-0.4c-0.2-0.2-0.5-0.6-1.1-0.5
		c-0.7,0-1.2,0.6-1.2,1.2c0,0.6,0.4,1.1,1,1.5c0.6,0.4,1.3,0.7,2.1,0.7c1.1,0,2.1-0.5,2.8-1.3l0,0c0,0,0-0.1,0.1-0.1l4.6-6.5
		c0.5,1.1,1.2,1.8,1.8,2.4c0.7,0.7,1.1,1.2,1.1,1.9c0,0.6-0.5,1.1-1.1,1.1c-0.4,0-0.6-0.1-0.8-0.3c-0.2-0.2-0.5-0.6-1.1-0.5
		c-0.7,0-1.2,0.6-1.2,1.2c0,0.6,0.4,1.1,1,1.5c0.6,0.4,1.3,0.7,2.1,0.7c2,0,3.6-1.6,3.6-3.6c0-1.5-0.9-2.7-1.7-3.7
		c-0.8-1-1.6-1.9-1.6-2.7c0-0.7,0.8-1.8,1-2.1c0.2-0.2,0.2-0.5,0.2-0.7c0-0.7-0.6-1.2-1.2-1.2c-0.3,0-0.7,0.1-1,0.5L21.9,15
		c-0.3-0.5-0.7-1-1.1-1.5c-0.8-1-1.6-1.9-1.6-2.7c0-0.7,0.8-1.8,1-2.1c0.2-0.2,0.2-0.5,0.2-0.7c0-0.7-0.6-1.2-1.2-1.2
		c-0.3,0-0.7,0.1-1,0.5l-7.3,10c-0.1,0.1-0.1,0.1-0.1,0.2c-0.7,0.6-1.7,1-2.7,1c-2.4,0-4.3-1.9-4.3-4.3c0-0.7,0.1-1.3,0.4-1.8
		c1.1,0.8,2.4,1.2,3.9,1.2c1.2,0,2.3-0.3,3.1-0.8c0.8-0.5,1.4-1.3,1.4-2.3S12,8.7,11.2,8.2c-0.8-0.5-1.9-0.8-3.1-0.8
		c-1.4,0-2.8,0.4-3.9,1.2C4,8,3.8,7.4,3.8,6.8c0-2.4,1.9-4.3,4.3-4.3c1.1,0,2.1,0.4,2.8,1c0.3,0.2,0.5,0.3,0.8,0.3
		c0.7,0,1.2-0.6,1.2-1.3c0-0.3-0.1-0.7-0.5-0.9c-1-1-2.6-1.6-4.3-1.6C4.4,0,1.3,3,1.3,6.8c0,1.4,0.4,2.6,1.1,3.7
		c-0.7,1-1.1,2.3-1.1,3.7C1.3,17.9,4.4,20.9,8.1,20.9z M5.9,10.5c0.6-0.4,1.4-0.6,2.2-0.6c0.5,0,1.1,0,1.5,0.2
		c0.2,0.1,0.4,0.1,0.5,0.2c0.1,0.1,0.1,0.1,0.1,0.2s0,0.1-0.1,0.2c-0.3,0.3-1.2,0.4-2,0.4C7.3,11,6.6,10.8,5.9,10.5z"/>
</g>
</svg>
