<?xml version="1.0" encoding="utf-8"?>
<!-- Generator: Adobe Illustrator 16.0.0, SVG Export Plug-In . SVG Version: 6.00 Build 0)  -->
<!DOCTYPE svg PUBLIC "-//W3C//DTD SVG 1.1//EN" "http://www.w3.org/Graphics/SVG/1.1/DTD/svg11.dtd">
<svg version="1.1" id="Layer_1" xmlns="http://www.w3.org/2000/svg" xmlns:xlink="http://www.w3.org/1999/xlink" x="0px" y="0px"
	 width="112px" height="63px" viewBox="0 0 112 63" enable-background="new 0 0 112 63" xml:space="preserve">
<path fill="#00AEEF" d="M31.3,0C14,0,0,14,0,31.3c0,17.3,14,31.3,31.3,31.3s31.3-14,31.3-31.3C62.7,14,48.6,0,31.3,0z M13.2,25.4
	H8.1v4.3h4.1v1.6H8.1v6.5H5.8v-14h7.3V25.4z M20.8,37.8H19l-0.2-0.6c-1.4,0.6-2,0.8-2.7,0.8c-1.7,0-2.8-1.2-2.8-3c0-1.8,1-2.8,2.8-3
	c0.8-0.1,2.5-0.1,2.5-0.1v-1c0-1.1-0.5-1.6-1.7-1.6c-0.7,0-1.3,0.1-2.1,0.3v-1.5c1-0.3,1.8-0.4,2.7-0.4c1.1,0,2,0.3,2.5,0.8
	c0.5,0.5,0.7,1.2,0.7,2.8V37.8z M25.6,37.8h-2.1V27.6h2.1V37.8z M24.5,26.2c-0.9,0-1.3-0.4-1.3-1.3c0-0.9,0.5-1.3,1.3-1.3
	c0.8,0,1.3,0.4,1.3,1.3C25.8,25.8,25.4,26.2,24.5,26.2z M33.7,29.8c-0.5-0.3-0.9-0.4-1.6-0.4c-0.6,0-1.3,0.2-1.6,0.6v7.8h-2.1V27.6
	h1.8l0.2,1c0.4-0.6,1.3-1.1,2.1-1.1c0.6,0,1,0.2,1.3,0.4V29.8z M40.4,29h-2.1v8.7h-2.1V29H35v-1.2l1.2-0.2v-1.2c0-2.2,1-3.2,3-3.2
	c0.6,0,1.4,0.1,1.9,0.2v1.4c-0.3,0-0.9-0.1-1.2-0.1c-1.2,0-1.6,0.4-1.6,1.6v1.2h2.1V29z M47.9,37.8h-1.8l-0.2-0.6
	c-1.4,0.6-2,0.8-2.7,0.8c-1.7,0-2.8-1.2-2.8-3c0-1.8,0.9-2.8,2.8-3c0.8-0.1,2.5-0.1,2.5-0.1v-1c0-1.1-0.5-1.6-1.7-1.6
	c-0.7,0-1.3,0.1-2.1,0.3v-1.5c1-0.3,1.8-0.4,2.7-0.4c1.1,0,2,0.3,2.5,0.8c0.5,0.5,0.7,1.2,0.7,2.8V37.8z M53.4,33.8l-2.3,3.9h-1.9
	l3.3-5.3l-3-4.8h2.4l2,3.4l2-3.4h1.8l-2.8,4.7l3.3,5.4h-2.4L53.4,33.8z M18.7,33c0,0-1.2,0-1.7,0.1c-1,0.1-1.4,0.7-1.4,1.6
	c0,1.1,0.6,1.6,1.7,1.6c0.5,0,0.9-0.2,1.4-0.4V33z M45.8,35.9c-0.5,0.2-0.9,0.4-1.4,0.4c-1.1,0-1.7-0.5-1.7-1.6
	c0-0.9,0.5-1.4,1.4-1.6c0.5-0.1,1.7-0.1,1.7-0.1V35.9z M76.6,23.5h2.6v14.5h-1.6h-0.3v-11l-3.7,11h-1.8l-3.7-11v11h-1.8V23.5h2.5
	l3.9,11.7L76.6,23.5z M85.5,27.4c-1.2,0-2.3,0.5-3,1.4c-0.7,0.9-1.1,2.3-1.1,4.2c0,1.6,0.3,2.9,1,3.8c0.8,0.9,1.9,1.4,3.6,1.4
	c0,0,0,0,0,0c0.9,0,1.8-0.1,2.6-0.3l0.2,0v-1.6l-0.3,0.1c-0.8,0.2-1.7,0.3-2.2,0.3c-2.1,0-3-0.9-3.1-3.3h6l0-0.3
	c0,0,0.1-0.9,0.1-1.3c0-1.2-0.2-2.2-0.8-3.1C87.8,27.9,86.8,27.4,85.5,27.4z M83.2,31.6c0.2-1.7,1.1-2.6,2.2-2.6
	c1.3,0,1.9,0.8,2,2.4c0,0.1,0,0.2,0,0.3H83.2z M97,27.8c-0.6-0.3-1.3-0.4-1.9-0.4c-1.7,0-2.9,0.7-3.7,1.8s-1,2.4-1,3.8
	c0,1.3,0.3,2.6,1,3.6c0.7,1,1.9,1.7,3.6,1.7c0,0,0,0,0,0c0.7,0,1.5-0.2,2.1-0.5l0,0.2l0.1,0.2h0.2h1.3V23.1H97V27.8z M95.2,29
	C95.2,29,95.2,29,95.2,29c0.7,0,1.4,0.3,1.8,0.6v6.6c-0.6,0.3-1.2,0.4-1.7,0.4c-2.2,0-3-1.4-3.1-3.7C92.2,30.4,93.3,29,95.2,29z
	 M101.3,27.5h1.8v10.5h-1.5h-0.3V27.5z M102.9,24.2c0.2,0.2,0.3,0.5,0.3,1c0,0.4-0.1,0.8-0.3,1c-0.2,0.2-0.5,0.3-0.8,0.3
	c-0.2,0-0.5,0-0.7-0.2c-0.2-0.2-0.3-0.5-0.3-1c0-0.4,0.1-0.8,0.3-1c0.2-0.2,0.5-0.3,0.8-0.3C102.4,24,102.7,24,102.9,24.2z
	 M111.2,28.1c-0.5-0.5-1.4-0.8-2.4-0.8c-0.8,0-1.8,0.2-2.3,0.4l-0.2,0.1v1.6l0.4-0.1c0.5-0.2,1.4-0.3,2-0.3c1.4,0.1,1.6,0.5,1.7,1.7
	v0.9c-0.6,0-2.1,0.1-2.7,0.2c-1.7,0.1-2.8,1.4-2.8,3.3c0,1,0.3,1.8,0.9,2.3c0.6,0.5,1.3,0.8,2.2,0.8c0,0,0,0,0,0
	c0.9,0,1.6-0.2,2.6-0.7l0.2,0.6h0.2h1.2v-7C112,29.4,111.7,28.7,111.2,28.1z M110.2,33.2v2.7c-0.5,0.3-1.6,0.8-2.1,0.8
	c-1.3,0-1.6-0.5-1.7-1.6c0-0.9,0.4-1.4,1.6-1.6C108.5,33.3,109.7,33.2,110.2,33.2z"/>
</svg>
