<?xml version="1.0" encoding="utf-8"?>
<!-- Generator: Adobe Illustrator 16.0.0, SVG Export Plug-In . SVG Version: 6.00 Build 0)  -->
<!DOCTYPE svg PUBLIC "-//W3C//DTD SVG 1.1//EN" "http://www.w3.org/Graphics/SVG/1.1/DTD/svg11.dtd">
<svg version="1.1" id="Layer_1" xmlns="http://www.w3.org/2000/svg" xmlns:xlink="http://www.w3.org/1999/xlink" x="0px" y="0px"
	 width="134px" height="43px" viewBox="0 0 134 43" enable-background="new 0 0 134 43" xml:space="preserve">
<path fill="#FFFFFF" d="M17.5,26.1c0-3.3-1.8-4.899-4.3-6.399L10.3,18c-1.2-0.7-1.7-1.3-1.7-2c0-1.2,0.9-1.5,2-1.5
	c1.7,0,3.9,0.4,5.9,1.1v-5c-1.8-0.7-4-1-6.6-1C4.7,9.5,2,12,2,16.2c0,3.4,1.6,5,4.2,6.5l3.3,2c0.8,0.5,1.4,1.1,1.4,1.899
	c0,1.2-1.1,1.801-2.4,1.801c-1.8,0-4.5-0.4-6.6-1.2v5.2c2.3,0.8,4.2,1.1,6.7,1.1C14.4,33.5,17.5,30.5,17.5,26.1z"/>
<path fill="#FFFFFF" d="M33.8,14.6V9.9H28V2.5l-7,2.6v5l-2.8,0.4v4.1H21v11.5c0,4.7,2.1,7.4,7.2,7.4c2,0,4.2-0.3,5.5-0.6V28
	c-1,0.2-2.9,0.4-3.5,0.4c-1.6,0-2.3-0.5-2.3-2.5V14.6H33.8z"/>
<path fill="#FFFFFF" d="M54.8,33.1V9.9H48v17.9c-0.6,0.3-1.7,0.7-2.6,0.7c-1.9,0-2.7-0.7-2.7-3.7V9.9h-6.9v14.5
	c0,3.1,0.4,4.899,1.5,6.5c1.1,1.5,3.4,2.5,5.7,2.5c1.9,0,4.2-0.7,5.5-1.301l0.3,1H54.8z"/>
<path fill="#FFFFFF" d="M72.2,5.5V0.9c-1.3-0.3-3.5-0.6-5.5-0.6c-5.1,0-7.2,2.6-7.2,7.4V10L57,10.5v4.1h2.6v18.5h6.9V14.6h4.4V9.9
	h-4.4V7.6c0-2.1,0.7-2.5,2.3-2.5C69.5,5.2,71.1,5.3,72.2,5.5z"/>
<path fill="#FFFFFF" d="M87.3,5.5V0.9c-1.3-0.3-3.5-0.6-5.5-0.6c-5.1,0-7.2,2.6-7.2,7.4V10L72,10.4v4.1h2.6V33h6.9V14.6h4.4V9.9
	h-4.4V7.6c0-2.1,0.7-2.5,2.3-2.5C84.7,5.2,86.2,5.3,87.3,5.5z"/>
<path fill="#FFFFFF" d="M87.5,31.1c0-1.199-0.7-1.8-1.8-1.8c-1.2,0-1.9,0.7-1.9,1.9s0.7,1.8,1.8,1.8C86.8,33,87.5,32.3,87.5,31.1z"
	/>
<path fill="#FFFFFF" d="M96.9,32.5v-2.1C96,30.7,95,30.8,94.3,30.8C92.9,30.8,91.9,29.9,91.9,27.6c0-2.399,1-3.199,2.399-3.199
	c0.9,0,1.5,0.1,2.5,0.399v-2.2c-1-0.399-1.899-0.5-2.8-0.5c-3.6,0-5.4,2.2-5.4,5.7c0,3.2,1.5,5.3,5,5.3C94.9,33,95.9,32.9,96.9,32.5
	z"/>
<path fill="#FFFFFF" d="M107.4,27.5c0-3.2-1.5-5.5-4.801-5.5c-3.3,0-4.8,2.3-4.8,5.5s1.5,5.5,4.8,5.5
	C105.9,33,107.4,30.7,107.4,27.5z M104.2,27.5c0,2.6-0.8,3.3-1.601,3.3c-0.8,0-1.6-0.7-1.6-3.3s0.8-3.3,1.6-3.3
	C103.4,24.2,104.2,24.9,104.2,27.5z"/>
<path fill="#FFFFFF" d="M112.2,31.1c0-1.199-0.7-1.8-1.8-1.8c-1.2,0-1.9,0.7-1.9,1.9s0.7,1.8,1.8,1.8
	C111.5,33,112.2,32.3,112.2,31.1z"/>
<path fill="#FFFFFF" d="M122.9,32.9v-6.7c0-1.4-0.2-2.3-0.7-3S120.6,22,119.6,22c-0.899,0-1.899,0.3-2.5,0.6l-0.1-0.5h-2.8v10.7h3.2
	v-8.2c0.3-0.1,0.8-0.3,1.199-0.3c0.9,0,1.2,0.3,1.2,1.7v6.8h3.101V32.9z"/>
<polygon fill="#FFFFFF" points="132.7,32.9 132.7,30.7 128,30.7 132.5,24.2 132.5,22.2 124.7,22.2 124.7,24.4 128.9,24.4 
	124.4,30.9 124.4,32.9 "/>
<rect y="37.1" fill="#FFFFFF" width="134" height="5.9"/>
</svg>
